<svg width="55" height="55" viewBox="0 0 55 55" fill="none" xmlns="http://www.w3.org/2000/svg">
<circle cx="27.5" cy="27.5" r="27.5" fill="black"/>
<path d="M4.03281 24.498L4.07383 24.2988H6.46445L6.4293 24.4746C6.37461 24.8223 6.44492 25.084 6.64023 25.2598C6.83945 25.4355 7.14023 25.5234 7.54258 25.5234C7.94492 25.5234 8.26328 25.4512 8.49766 25.3066C8.73594 25.1582 8.87461 24.9609 8.91367 24.7148C8.96445 24.418 8.90781 24.2031 8.74375 24.0703C8.57969 23.9336 8.08359 23.7734 7.25547 23.5898C6.37656 23.3906 5.70664 23.0762 5.2457 22.6465C4.78867 22.2168 4.62656 21.6328 4.75937 20.8945C4.90781 20.0898 5.34141 19.457 6.06016 18.9961C6.78281 18.5312 7.6793 18.2988 8.74961 18.2988C9.8082 18.2988 10.6168 18.5391 11.1754 19.0195C11.7379 19.5 11.9449 20.1367 11.7965 20.9297L11.7555 21.123H9.41758L9.44687 20.959C9.49766 20.6543 9.43906 20.4102 9.27109 20.2266C9.10312 20.043 8.82383 19.9512 8.4332 19.9512C8.05039 19.9512 7.75742 20.0156 7.5543 20.1445C7.35117 20.2734 7.23594 20.4414 7.20859 20.6484C7.16953 20.9062 7.23594 21.0859 7.40781 21.1875C7.57969 21.2852 8.05039 21.4277 8.81992 21.6152C9.69492 21.8301 10.3727 22.1562 10.8531 22.5938C11.3336 23.0273 11.5016 23.6582 11.357 24.4863C11.193 25.3574 10.7379 26.0234 9.9918 26.4844C9.2457 26.9414 8.32578 27.1699 7.23203 27.1699C6.15781 27.1699 5.31406 26.9453 4.70078 26.4961C4.09141 26.0469 3.86875 25.3809 4.03281 24.498ZM12.1832 23.9355L12.2125 23.748C12.3883 22.7637 12.8453 21.9785 13.5836 21.3926C14.3258 20.8027 15.1852 20.5078 16.1617 20.5078C17.1539 20.5078 17.8902 20.7852 18.3707 21.3398C18.8512 21.8906 19.0016 22.6582 18.8219 23.6426L18.6812 24.4102H13.7184L13.9527 23.1328H16.6715L16.6832 23.0039C16.7301 22.7695 16.6832 22.5469 16.5426 22.3359C16.402 22.125 16.1598 22.0195 15.816 22.0195C15.4762 22.0195 15.1891 22.1562 14.9547 22.4297C14.7242 22.7031 14.5641 23.0996 14.4742 23.6191L14.3746 24.0527C14.2926 24.5566 14.3395 24.9453 14.5152 25.2188C14.6949 25.4883 14.982 25.623 15.3766 25.623C15.6773 25.623 15.9527 25.543 16.2027 25.3828C16.4566 25.2188 16.6695 25.0332 16.8414 24.8262L18.2535 25.8516C17.9801 26.2617 17.5602 26.5859 16.9937 26.8242C16.4312 27.0625 15.8082 27.1816 15.1246 27.1816C14.0426 27.1816 13.2359 26.8867 12.7047 26.2969C12.1773 25.707 12.0035 24.9199 12.1832 23.9355ZM19.4254 23.9355L19.4605 23.748C19.6402 22.7754 20.0445 22.002 20.6734 21.4277C21.3062 20.8535 22.0328 20.5664 22.8531 20.5664C23.2672 20.5664 23.6051 20.6367 23.8668 20.7773C24.1285 20.918 24.3043 21.1016 24.3941 21.3281H24.4176L24.5641 20.6836H26.7496L25.2086 29.4375H22.9469L23.4801 26.4082V26.4141C23.3004 26.6445 23.068 26.8203 22.7828 26.9414C22.4977 27.0586 22.1383 27.1172 21.7047 27.1172C20.8609 27.1172 20.2262 26.8301 19.8004 26.2559C19.3785 25.6816 19.2535 24.9082 19.4254 23.9355ZM21.7223 24.0527C21.6441 24.5254 21.6812 24.8848 21.8336 25.1309C21.9859 25.377 22.2359 25.5 22.5836 25.5C22.8453 25.5 23.0816 25.4297 23.2926 25.2891C23.5035 25.1484 23.6676 24.9648 23.7848 24.7383L24.0836 22.9102C24.0328 22.7109 23.9254 22.541 23.7613 22.4004C23.5973 22.2559 23.3785 22.1836 23.1051 22.1836C22.7574 22.1836 22.4742 22.3086 22.2555 22.5586C22.0406 22.8047 21.8941 23.1641 21.816 23.6367L21.7223 24.0527ZM27.6109 22.9922L27.6988 22.4766C27.9488 21.0938 28.5133 20.0527 29.3922 19.3535C30.2711 18.6504 31.3219 18.2988 32.5445 18.2988C33.7164 18.2988 34.5914 18.5586 35.1695 19.0781C35.7516 19.5938 35.9586 20.2637 35.7906 21.0879L35.7672 21.1758H33.3941L33.4059 21.1055C33.4566 20.7617 33.3824 20.4863 33.1832 20.2793C32.9879 20.0723 32.6422 19.9688 32.1461 19.9688C31.6695 19.9688 31.2535 20.1504 30.898 20.5137C30.5465 20.873 30.3082 21.4453 30.1832 22.2305L29.9547 23.2383C29.818 24.0508 29.8941 24.6328 30.1832 24.9844C30.4723 25.3359 30.9 25.5117 31.4664 25.5117C31.7359 25.5117 31.9684 25.4844 32.1637 25.4297C32.3629 25.375 32.568 25.2832 32.7789 25.1543L32.9605 23.9648H31.5836L31.8941 22.3418H35.5914L34.9586 25.8926C34.5641 26.2129 34.0465 26.5059 33.4059 26.7715C32.7691 27.0371 32.0152 27.1699 31.1441 27.1699C29.8121 27.1699 28.8277 26.8203 28.191 26.1211C27.5543 25.418 27.3609 24.375 27.6109 22.9922ZM36.0895 23.9355L36.1188 23.748C36.2945 22.7637 36.7516 21.9785 37.4898 21.3926C38.232 20.8027 39.0914 20.5078 40.068 20.5078C41.0602 20.5078 41.7965 20.7852 42.277 21.3398C42.7574 21.8906 42.9078 22.6582 42.7281 23.6426L42.5875 24.4102H37.6246L37.859 23.1328H40.5777L40.5895 23.0039C40.6363 22.7695 40.5895 22.5469 40.4488 22.3359C40.3082 22.125 40.066 22.0195 39.7223 22.0195C39.3824 22.0195 39.0953 22.1562 38.8609 22.4297C38.6305 22.7031 38.4703 23.0996 38.3805 23.6191L38.2809 24.0527C38.1988 24.5566 38.2457 24.9453 38.4215 25.2188C38.6012 25.4883 38.8883 25.623 39.2828 25.623C39.5836 25.623 39.859 25.543 40.109 25.3828C40.3629 25.2188 40.5758 25.0332 40.7477 24.8262L42.1598 25.8516C41.8863 26.2617 41.4664 26.5859 40.9 26.8242C40.3375 27.0625 39.7145 27.1816 39.0309 27.1816C37.9488 27.1816 37.1422 26.8867 36.6109 26.2969C36.0836 25.707 35.9098 24.9199 36.0895 23.9355ZM43.1207 27L44.2281 20.6895H46.4254L46.3434 21.334H46.3727C46.5406 21.1074 46.7965 20.9219 47.1402 20.7773C47.4879 20.6328 47.8512 20.5605 48.2301 20.5605C48.9137 20.5605 49.441 20.752 49.8121 21.1348C50.1832 21.5176 50.2809 22.2031 50.1051 23.1914L49.443 27H47.1754L47.8609 23.1152C47.9117 22.7715 47.8766 22.5332 47.7555 22.4004C47.6383 22.2676 47.4527 22.2012 47.1988 22.2012C46.9996 22.2012 46.7984 22.2637 46.5953 22.3887C46.3922 22.5137 46.2242 22.6953 46.0914 22.9336L45.3883 27H43.1207Z" fill="white"/>
<circle cx="6.5" cy="36.5" r="0.5" fill="white"/>
<circle cx="9" cy="36" r="1" fill="white"/>
<circle cx="12.5" cy="35.5" r="1.5" fill="white"/>
<circle cx="17" cy="35" r="2" fill="white"/>
<circle cx="22.5" cy="34.5" r="2.5" fill="white"/>
<circle cx="29" cy="34" r="3" fill="white"/>
<circle cx="36.5" cy="33.5" r="3.5" fill="white"/>
<circle cx="45" cy="33" r="4" fill="white"/>
</svg>
